# xmcd
#
# Track frame offsets: 
#        150
#        16993
#        47998
#        77877
#        93124
#        111875
#        132241
#        157579
#        176349
#        203849
#        247028
#        314239
#
# Disc length: 4544 seconds
#
# Revision: 0
# Processed by: cddbd v1.5.2PL0 Copyright (c) Steve Scherf et al.
# Submitted via: ExactAudioCopy v0.99pb5
#
DISCID=9911be0c
DTITLE=Jeff Healey - As The Years Go Passing By - Deluxe Edition  CD 2
DYEAR=2013
DGENRE=Bluesrock
TTITLE0=Got A Line On You
TTITLE1=Stop Breaking Down
TTITLE2=As The Years Go Passing By
TTITLE3=Confidence Man
TTITLE4=Stuck In The Middle
TTITLE5=Angel
TTITLE6=Yer Blues
TTITLE7=Me And My Crazy Self
TTITLE8=Angel Eyes
TTITLE9=Roadhouse Blues
TTITLE10=See The Light
TTITLE11=While My Guitar Gently Weeps
EXTD=
EXTT0=
EXTT1=
EXTT2=
EXTT3=
EXTT4=
EXTT5=
EXTT6=
EXTT7=
EXTT8=
EXTT9=
EXTT10=
EXTT11=
PLAYORDER=
